REM GENRE Trance
REM DATE 2007
REM COMMENT Super AFC Ajax
PERFORMER "Armin van Buuren"
TITLE "A State of Trance Episode 301 (2007-05-24) [TT]"
FILE "01_armin_van_buuren_-_a_state_of_trance_301_(di.fm)_05-24-2007-tt.mp3" WAVE
  TRACK 01 AUDIO
    TITLE "Intro"
    PERFORMER "A State of Trance"
    INDEX 01 00:00:00
  TRACK 02 AUDIO
    TITLE "Waiting For You (Night Music Edit)"
    PERFORMER "The Thrillseekers feat. Aruna"
    INDEX 01 00:48:05
  TRACK 03 AUDIO
    TITLE "Who Will Find Me?"
    PERFORMER "DJ Shah feat. Adrina Thorpe"
    INDEX 01 09:35:26
  TRACK 04 AUDIO
    TITLE "Tremble [Tune Of The Week]"
    PERFORMER "Global Illumination"
    INDEX 01 17:06:19
  TRACK 05 AUDIO
    TITLE "Mexico Can Wait"
    PERFORMER "Remy & Roland Klinkenberg"
    INDEX 01 23:53:39
  TRACK 06 AUDIO
    TITLE "Till The Sky Falls Down"
    PERFORMER "Dash Berlin"
    INDEX 01 28:29:66
  TRACK 07 AUDIO
    TITLE "Angel Falls (Lange's Firewall Mix)"
    PERFORMER "Lange"
    INDEX 01 34:18:73
  TRACK 08 AUDIO
    TITLE "Frozen (Wippenberg Remix)"
    PERFORMER "Dogzilla"
    INDEX 01 40:08:05
  TRACK 09 AUDIO
    TITLE "Life Less Ordinary (A Less Ordinary Rank 1 Mix)"
    PERFORMER "Alex M.O.R.P.H. & Rank 1"
    INDEX 01 46:55:17
  TRACK 10 AUDIO
    TITLE "Kalopsia"
    PERFORMER "The Blizzard"
    INDEX 01 52:38:60
  TRACK 11 AUDIO
    TITLE "Touch The Sun (Duende Dub)"
    PERFORMER "Alex Bartlett feat. Anthya"
    INDEX 01 57:26:60
  TRACK 12 AUDIO
    TITLE "Walk Away (Terry Ferminal Mix)"
    PERFORMER "Terry Ferminal vs. Mark Sherry"
    INDEX 01 65:16:10
  TRACK 13 AUDIO
    TITLE "In & Out (DJ Shah Rework)"
    PERFORMER "Sunlounger"
    INDEX 01 70:26:61
  TRACK 14 AUDIO
    TITLE "Oceanic"
    PERFORMER "Above & Beyond pres. Tranquility Base"
    INDEX 01 76:19:57
  TRACK 15 AUDIO
    TITLE "Rush Hour [Future Favorite]"
    PERFORMER "Armin van Buuren"
    INDEX 01 81:56:08
  TRACK 16 AUDIO
    TITLE "Megashira (Stoneface & Terminal Remix)"
    PERFORMER "Marc Marberg with Kyau & Albert"
    INDEX 01 88:32:02
  TRACK 17 AUDIO
    TITLE "Nolthando"
    PERFORMER "Menno de Jong"
    INDEX 01 93:54:12
  TRACK 18 AUDIO
    TITLE "Saved Again (3rd Moon Remix)"
    PERFORMER "Cerf, Mitiska & Jaren"
    INDEX 01 99:00:18
  TRACK 19 AUDIO
    TITLE "I Found A Way"
    PERFORMER "Daniel Kandi"
    INDEX 01 105:15:67
  TRACK 20 AUDIO
    TITLE "Platinum (Tech Mix)"
    PERFORMER "Nenes & Pascal Feliz"
    INDEX 01 111:48:70
  TRACK 21 AUDIO
    TITLE "Schöneberg [ASOT Radio Classic]"
    PERFORMER "Marmion"
    INDEX 01 116:53:00
